<svg width="144px" height="144px" viewBox="0 0 144 144" fill="none" xmlns="http://www.w3.org/2000/svg">
<path d="M132 84C123.204 84 114.432 81.168 108 77.004V96H96V93L87 84H60V96H48V72.168C40.224 72.678 29.004 74.832 24.69 83.712C24.252 85.746 24 87.84 24 90H12C12 67.446 29.88 49.044 52.206 48.09C52.206 48.09 53.526 48 54 48H90C96.57 48 102.258 51.558 105.402 56.814L105.414 56.76C111.456 67.008 120 73.488 132 78V84Z" fill="#BDBDBD"/>
<path opacity="0.3" d="M132 78V84C123.204 84 114.432 81.162 108 76.998V96H96V93L87 84H60L78 48H90C96.57 48 102.258 51.558 105.402 56.814L105.414 56.76C111.45 67.002 120 73.488 132 78Z" fill="black"/>
<path opacity="0.4" d="M60 84L48 72C48 72 66 66 54 48H78L60 84Z" fill="black"/>
</svg>
